<svg id="visual" viewBox="0 0 1920 1080" width="1920" height="1080" xmlns="http://www.w3.org/2000/svg" xmlns:xlink="http://www.w3.org/1999/xlink" version="1.1"><g stroke-width="1" stroke-linejoin="bevel"><path d="M1094.7 512L1198 648L1293 529Z" fill="#191822" stroke="#191822"></path><path d="M1293 529L1256 442L1094.7 512Z" fill="#191922" stroke="#191922"></path><path d="M1094.7 512L1033.7 719L1198 648Z" fill="#1a1921" stroke="#1a1921"></path><path d="M1256 442L1059.7 339L1094.7 512Z" fill="#1c1b21" stroke="#1c1b21"></path><path d="M1094.7 512L822.3 642L1033.7 719Z" fill="#191822" stroke="#191822"></path><path d="M1470.3 667L1474.3 522L1293 529Z" fill="#1c1b21" stroke="#1c1b21"></path><path d="M1293 529L1474.3 522L1256 442Z" fill="#181822" stroke="#181822"></path><path d="M1256 442L1324 167L1059.7 339Z" fill="#1d1c21" stroke="#1d1c21"></path><path d="M1033.7 719L1108.7 820L1198 648Z" fill="#1a1921" stroke="#1a1921"></path><path d="M1198 648L1470.3 667L1293 529Z" fill="#191822" stroke="#191822"></path><path d="M1416.3 836L1470.3 667L1198 648Z" fill="#1c1b21" stroke="#1c1b21"></path><path d="M1108.7 820L1302 867L1198 648Z" fill="#191822" stroke="#191822"></path><path d="M1643.7 578L1516.3 426L1474.3 522Z" fill="#191922" stroke="#191922"></path><path d="M1474.3 522L1516.3 426L1256 442Z" fill="#1d1c21" stroke="#1d1c21"></path><path d="M1302 867L1416.3 836L1198 648Z" fill="#1d1c21" stroke="#1d1c21"></path><path d="M800.3 492L822.3 642L1094.7 512Z" fill="#181822" stroke="#181822"></path><path d="M798.3 957L1080.7 1080L1108.7 820Z" fill="#191822" stroke="#191822"></path><path d="M1059.7 339L800.3 492L1094.7 512Z" fill="#1c1b21" stroke="#1c1b21"></path><path d="M1516.3 426L1324 167L1256 442Z" fill="#181822" stroke="#181822"></path><path d="M1059.7 339L776.3 367L800.3 492Z" fill="#191922" stroke="#191922"></path><path d="M1324 167L1021.7 135L1059.7 339Z" fill="#1a1921" stroke="#1a1921"></path><path d="M928.3 103L776.3 367L1059.7 339Z" fill="#1a1a21" stroke="#1a1a21"></path><path d="M800.3 492L711 582L822.3 642Z" fill="#191922" stroke="#191922"></path><path d="M1645.7 648L1643.7 578L1470.3 667Z" fill="#1d1c21" stroke="#1d1c21"></path><path d="M1470.3 667L1643.7 578L1474.3 522Z" fill="#191822" stroke="#191822"></path><path d="M1516.3 426L1555.3 195L1324 167Z" fill="#1b1a21" stroke="#1b1a21"></path><path d="M1416.3 836L1645.7 648L1470.3 667Z" fill="#181822" stroke="#181822"></path><path d="M1643.7 578L1635.7 366L1516.3 426Z" fill="#1a1a21" stroke="#1a1a21"></path><path d="M594 407L711 582L800.3 492Z" fill="#181822" stroke="#181822"></path><path d="M822.3 642L798.3 957L1033.7 719Z" fill="#181822" stroke="#181822"></path><path d="M1635.7 366L1555.3 195L1516.3 426Z" fill="#1a1921" stroke="#1a1921"></path><path d="M1098.7 0L928.3 103L1021.7 135Z" fill="#181822" stroke="#181822"></path><path d="M1021.7 135L928.3 103L1059.7 339Z" fill="#1c1b21" stroke="#1c1b21"></path><path d="M1098.7 0L1021.7 135L1324 167Z" fill="#1d1c21" stroke="#1d1c21"></path><path d="M711 582L680 713L822.3 642Z" fill="#181822" stroke="#181822"></path><path d="M1108.7 820L1270 1080L1302 867Z" fill="#191922" stroke="#191922"></path><path d="M1302 867L1428.3 1080L1416.3 836Z" fill="#1d1c21" stroke="#1d1c21"></path><path d="M1416.3 836L1692.7 913L1645.7 648Z" fill="#1c1b21" stroke="#1c1b21"></path><path d="M1080.7 1080L1270 1080L1108.7 820Z" fill="#1a1921" stroke="#1a1921"></path><path d="M798.3 957L1108.7 820L1033.7 719Z" fill="#191922" stroke="#191922"></path><path d="M1357 0L1098.7 0L1324 167Z" fill="#1c1b21" stroke="#1c1b21"></path><path d="M680 713L798.3 957L822.3 642Z" fill="#191922" stroke="#191922"></path><path d="M1429.3 0L1357 0L1324 167Z" fill="#1d1c21" stroke="#1d1c21"></path><path d="M1270 1080L1428.3 1080L1302 867Z" fill="#1c1b21" stroke="#1c1b21"></path><path d="M1555.3 195L1429.3 0L1324 167Z" fill="#181822" stroke="#181822"></path><path d="M608 183L594 407L776.3 367Z" fill="#1b1a21" stroke="#1b1a21"></path><path d="M776.3 367L594 407L800.3 492Z" fill="#191822" stroke="#191822"></path><path d="M711 582L458.7 471L680 713Z" fill="#191822" stroke="#191822"></path><path d="M1428.3 1080L1692.7 913L1416.3 836Z" fill="#1d1c21" stroke="#1d1c21"></path><path d="M1645.7 648L1920 546L1643.7 578Z" fill="#191922" stroke="#191922"></path><path d="M1920 237L1694.7 139L1635.7 366Z" fill="#1b1a21" stroke="#1b1a21"></path><path d="M1635.7 366L1694.7 139L1555.3 195Z" fill="#181822" stroke="#181822"></path><path d="M1555.3 195L1707.7 0L1429.3 0Z" fill="#1b1a21" stroke="#1b1a21"></path><path d="M1920 401L1635.7 366L1643.7 578Z" fill="#191822" stroke="#191822"></path><path d="M664 1080L823.3 1080L798.3 957Z" fill="#1b1a21" stroke="#1b1a21"></path><path d="M798.3 957L823.3 1080L1080.7 1080Z" fill="#191822" stroke="#191822"></path><path d="M1098.7 0L782.3 0L928.3 103Z" fill="#1b1a21" stroke="#1b1a21"></path><path d="M928.3 103L608 183L776.3 367Z" fill="#1a1a21" stroke="#1a1a21"></path><path d="M782.3 0L608 183L928.3 103Z" fill="#181822" stroke="#181822"></path><path d="M432.7 801L576 885L680 713Z" fill="#191922" stroke="#191922"></path><path d="M680 713L576 885L798.3 957Z" fill="#191822" stroke="#191822"></path><path d="M1920 790L1920 546L1645.7 648Z" fill="#1a1921" stroke="#1a1921"></path><path d="M380.7 415L458.7 471L594 407Z" fill="#1d1c21" stroke="#1d1c21"></path><path d="M594 407L458.7 471L711 582Z" fill="#191922" stroke="#191922"></path><path d="M782.3 0L688 0L608 183Z" fill="#1c1b21" stroke="#1c1b21"></path><path d="M608 183L380.7 415L594 407Z" fill="#1a1921" stroke="#1a1921"></path><path d="M1920 546L1920 401L1643.7 578Z" fill="#1c1b21" stroke="#1c1b21"></path><path d="M1920 0L1707.7 0L1694.7 139Z" fill="#1c1b21" stroke="#1c1b21"></path><path d="M1694.7 139L1707.7 0L1555.3 195Z" fill="#1c1b21" stroke="#1c1b21"></path><path d="M576 885L664 1080L798.3 957Z" fill="#1c1b21" stroke="#1c1b21"></path><path d="M1920 977L1920 790L1692.7 913Z" fill="#1b1a21" stroke="#1b1a21"></path><path d="M1692.7 913L1920 790L1645.7 648Z" fill="#1a1a21" stroke="#1a1a21"></path><path d="M1428.3 1080L1764.7 1080L1692.7 913Z" fill="#1c1b21" stroke="#1c1b21"></path><path d="M1920 401L1920 237L1635.7 366Z" fill="#1a1a21" stroke="#1a1a21"></path><path d="M458.7 471L432.7 801L680 713Z" fill="#1d1c21" stroke="#1d1c21"></path><path d="M576 885L474.7 1080L664 1080Z" fill="#1b1a21" stroke="#1b1a21"></path><path d="M385.7 114L380.7 415L608 183Z" fill="#1a1a21" stroke="#1a1a21"></path><path d="M150.3 691L245.3 831L432.7 801Z" fill="#1b1a21" stroke="#1b1a21"></path><path d="M1764.7 1080L1920 977L1692.7 913Z" fill="#1b1a21" stroke="#1b1a21"></path><path d="M245.3 831L394.7 846L432.7 801Z" fill="#191822" stroke="#191822"></path><path d="M432.7 801L394.7 846L576 885Z" fill="#1c1b21" stroke="#1c1b21"></path><path d="M394.7 846L474.7 1080L576 885Z" fill="#1c1b21" stroke="#1c1b21"></path><path d="M1764.7 1080L1920 1080L1920 977Z" fill="#1c1b21" stroke="#1c1b21"></path><path d="M1920 237L1920 0L1694.7 139Z" fill="#191822" stroke="#191822"></path><path d="M688 0L385.7 114L608 183Z" fill="#1c1b21" stroke="#1c1b21"></path><path d="M385.7 114L232.3 311L380.7 415Z" fill="#1c1b21" stroke="#1c1b21"></path><path d="M150.3 618L432.7 801L458.7 471Z" fill="#1a1a21" stroke="#1a1a21"></path><path d="M150.3 618L458.7 471L380.7 415Z" fill="#1a1921" stroke="#1a1921"></path><path d="M394.7 846L172.3 1080L474.7 1080Z" fill="#1a1a21" stroke="#1a1a21"></path><path d="M385.7 114L172.3 179L232.3 311Z" fill="#1a1921" stroke="#1a1921"></path><path d="M688 0L354.7 0L385.7 114Z" fill="#191922" stroke="#191922"></path><path d="M232.3 311L150.3 618L380.7 415Z" fill="#1c1b21" stroke="#1c1b21"></path><path d="M150.3 618L150.3 691L432.7 801Z" fill="#1a1a21" stroke="#1a1a21"></path><path d="M174.3 0L172.3 179L385.7 114Z" fill="#181822" stroke="#181822"></path><path d="M0 388L0 555L150.3 618Z" fill="#1d1c21" stroke="#1d1c21"></path><path d="M0 902L172.3 1080L245.3 831Z" fill="#1b1a21" stroke="#1b1a21"></path><path d="M245.3 831L172.3 1080L394.7 846Z" fill="#1d1c21" stroke="#1d1c21"></path><path d="M354.7 0L174.3 0L385.7 114Z" fill="#191922" stroke="#191922"></path><path d="M0 388L150.3 618L232.3 311Z" fill="#1b1a21" stroke="#1b1a21"></path><path d="M150.3 618L0 688L150.3 691Z" fill="#191822" stroke="#191822"></path><path d="M150.3 691L0 902L245.3 831Z" fill="#1c1b21" stroke="#1c1b21"></path><path d="M0 388L232.3 311L172.3 179Z" fill="#1d1c21" stroke="#1d1c21"></path><path d="M0 555L0 688L150.3 618Z" fill="#1a1921" stroke="#1a1921"></path><path d="M0 148L0 388L172.3 179Z" fill="#181822" stroke="#181822"></path><path d="M0 688L0 902L150.3 691Z" fill="#1b1a21" stroke="#1b1a21"></path><path d="M174.3 0L0 148L172.3 179Z" fill="#1a1a21" stroke="#1a1a21"></path><path d="M0 902L0 1080L172.3 1080Z" fill="#1b1a21" stroke="#1b1a21"></path><path d="M174.3 0L0 0L0 148Z" fill="#1a1921" stroke="#1a1921"></path></g></svg>