<svg id="visual" viewBox="0 0 1920 1080" width="1920" height="1080" xmlns="http://www.w3.org/2000/svg" xmlns:xlink="http://www.w3.org/1999/xlink" version="1.1"><rect x="0" y="0" width="1920" height="1080" fill="#E0DDD4"></rect><defs><linearGradient id="grad1_0" x1="43.8%" y1="0%" x2="100%" y2="100%"><stop offset="14.444444444444446%" stop-color="#e0ddd4" stop-opacity="1"></stop><stop offset="85.55555555555554%" stop-color="#e0ddd4" stop-opacity="1"></stop></linearGradient></defs><defs><linearGradient id="grad2_0" x1="0%" y1="0%" x2="56.3%" y2="100%"><stop offset="14.444444444444446%" stop-color="#e0ddd4" stop-opacity="1"></stop><stop offset="85.55555555555554%" stop-color="#e0ddd4" stop-opacity="1"></stop></linearGradient></defs><g transform="translate(1920, 0)"><path d="M0 972C-133.4 966.3 -266.7 960.5 -372 898C-477.2 835.5 -554.3 716.2 -610.9 610.9C-667.5 505.7 -703.6 414.4 -760.4 314.9C-817.1 215.5 -894.6 107.7 -972 0L0 0Z" fill="#181822"></path></g><g transform="translate(0, 1080)"><path d="M0 -972C128.9 -959.8 257.8 -947.6 372 -898C486.1 -848.4 585.5 -761.4 666.1 -666.1C746.7 -570.8 808.6 -467.1 856.4 -354.7C904.3 -242.3 938.1 -121.2 972 0L0 0Z" fill="#181822"></path></g></svg>